<?xml version="1.0" encoding="UTF-8" standalone="no"?>
<!-- Created with Inkscape (http://www.inkscape.org/) -->

<svg
   version="2.0"
   id="svg1"
   width="1672"
   height="941"
   viewBox="0 0 1672 941"
   standalone="no"
   xmlns="http://www.w3.org/2000/svg"
   xmlns:svg="http://www.w3.org/2000/svg">
  <defs
     id="defs1" />
  <g
     id="g1">
    <g
       id="g2"
       transform="translate(1.2557669,7.7365335)">
      <g
         id="g4"
         transform="translate(14,4)">
        <path
           style="fill:#f9f9f9"
           d="m 275.33772,617.5 4.51278,-13.5 -44.67525,-0.0239 c -24.57139,-0.0131 -46.43362,-0.43171 -48.58273,-0.9302 -2.14911,-0.4985 -4.97557,-1.97445 -6.28102,-3.2799 -4.66368,-4.66368 -4.2804,-7.16811 5.68504,-37.1473 10.65758,-32.06135 12.52463,-35.55463 21.43023,-40.09625 l 5.92677,-3.02249 47.48515,-0.5 47.48515,-0.5 3.84962,-11.5 c 2.11729,-6.325 4.09975,-12.2875 4.40547,-13.25 0.5245,-1.65131 -2.30997,-1.74803 -50.26154,-1.71511 -57.47096,0.0394 -61.76115,0.41957 -74.28175,6.5814 -9.85024,4.84766 -20.40828,15.20972 -24.84488,24.38371 -4.82244,9.97182 -24.20791,70.37782 -24.8737,77.50755 -1.07967,11.56195 3.49143,21.30206 12.05873,25.69474 8.73994,4.48121 10.57352,4.61446 64.78668,4.70829 L 270.82495,631 Z m 124.03122,11.99212 c 13.35233,-3.47784 23.5659,-11.35777 29.54591,-22.79514 3.01791,-5.77207 18.32225,-51.91673 19.50426,-58.80802 0.94059,-5.48375 -1.17885,-13.54572 -4.57921,-17.41852 -1.66378,-1.89495 -5.45272,-4.379 -8.65023,-5.67116 C 429.5868,522.53508 428.89743,522.5 390,522.5 c -38.27279,0 -39.72423,0.0705 -46.71726,2.26884 -9.40508,2.95661 -18.43467,9.72017 -23.93917,17.9315 -3.25625,4.85752 -6.05178,11.89614 -12.90805,32.5 -7.73333,23.23957 -8.76232,27.17232 -8.84357,33.79966 -0.13869,11.31261 3.4369,16.24669 14.55615,20.08652 4.83258,1.66885 9.0431,1.85136 43.3918,1.88083 30.75563,0.0264 39.14847,-0.25609 43.82904,-1.47523 z M 338.64255,605.97179 C 334.16818,604.63095 332,602.10025 332,598.21863 c 0,-1.90927 2.76158,-12.02611 6.13685,-22.48186 5.4495,-16.88123 6.56363,-19.43725 9.94725,-22.82087 5.59401,-5.59401 8.55291,-6.05677 36.54449,-5.71533 l 24.54775,0.29943 2.41183,2.80576 c 1.32651,1.54317 2.413,3.79317 2.41442,5 0.003,2.82194 -10.64503,36.03217 -13.10958,40.88631 -2.29172,4.51371 -7.05992,8.24739 -12.39301,9.70415 -4.72196,1.28983 -45.59874,1.35179 -49.85745,0.0756 z m 232.24705,14.25897 c 1.86428,-5.90192 3.60426,-11.51826 3.86663,-12.48076 0.44861,-1.64574 -1.93893,-1.75 -40.0745,-1.75 -22.30334,0 -41.636,-0.41231 -42.96145,-0.91625 C 488.09171,603.70417 486,601.16864 486,598.14973 c 0,-1.48907 2.91902,-11.43856 6.48671,-22.10998 6.73607,-20.14844 8.47327,-23.25864 15.01329,-26.87903 2.61801,-1.44926 8.34788,-1.72439 45,-2.16072 l 42,-0.5 4.19736,-12.25 4.19736,-12.25 h -47.49995 c -53.10724,0 -56.49191,0.33164 -67.05146,6.56992 -6.45624,3.81415 -13.15486,10.51992 -16.80445,16.82237 -1.30827,2.25924 -6.31652,16.03271 -11.12944,30.60771 -7.28478,22.06051 -8.75866,27.58893 -8.79778,33 -0.0803,11.11081 5.05233,17.594 16.33892,20.63802 3.28045,0.88474 17.79873,1.24045 52.04944,1.27524 l 47.5,0.0482 z m 49.10121,7.51924 c 0.65255,-1.7875 6.80957,-19.88808 13.68225,-40.2235 6.87269,-20.33543 12.934,-37.79228 13.46957,-38.79301 0.91276,-1.70551 2.78215,-1.80115 29.83658,-1.5265 l 28.86281,0.29301 2.57899,2.42431 c 1.89014,1.77678 2.57899,3.43461 2.57899,6.20677 0,2.13329 -5.01404,19.00539 -11.5,38.69717 -6.325,19.2031 -11.5,35.20898 -11.5,35.56863 0,0.35965 7.05514,0.52998 15.67809,0.37851 l 15.67808,-0.27539 13.31182,-40 c 11.84055,-35.57908 13.31293,-40.7533 13.32191,-46.81574 0.006,-3.74866 -0.4939,-7.79866 -1.10989,-9 -2.56593,-5.00418 -7.36355,-8.75325 -13.70975,-10.71339 -5.74003,-1.77291 -9.30824,-1.96849 -35.5256,-1.94713 -28.6869,0.0234 -29.2389,0.0625 -35.14466,2.49536 -3.3,1.3594 -6.05743,2.47372 -6.12763,2.47627 -0.0702,0.003 2.51407,-8.20787 5.74282,-18.24537 3.22875,-10.0375 5.87369,-18.8125 5.87763,-19.5 0.005,-0.94455 -3.64386,-1.25 -14.9338,-1.25 -10.85465,0 -15.16225,0.34187 -15.75,1.25 -0.44496,0.6875 -11.46547,32.8625 -24.49001,71.5 L 587.13802,631 h 15.83316 15.83317 z M 870.12899,619 873.86322,607.5 831.63589,607 c -38.90917,-0.46071 -42.44906,-0.64538 -45.04922,-2.35011 -2.57923,-1.69102 -2.77942,-2.24997 -2.32799,-6.5 0.27164,-2.55744 0.98842,-5.88739 1.59285,-7.39989 L 786.9505,588 h 48.46142 48.46142 l 7.06333,-21.37774 c 7.84153,-23.73303 8.48402,-28.32217 4.86637,-34.75892 -1.58851,-2.82636 -3.73491,-4.66428 -7.75,-6.63616 L 882.5,522.5 844.34622,522.20584 c -31.49772,-0.24284 -39.30607,-0.0269 -44.75893,1.23768 -12.32037,2.85729 -21.44879,8.99046 -27.56334,18.51916 -3.1856,4.96433 -19.8538,53.08375 -22.04656,63.64621 -2.40409,11.58048 2.56815,20.5291 13.14136,23.65067 4.63402,1.36812 12.17803,1.56455 54.32863,1.41458 L 866.39477,630.5 Z m -75.55362,-54.75 c 1.37897,-6.18144 5.54675,-13.16245 9.22286,-15.44825 3.56566,-2.21712 4.62191,-2.31317 28.7271,-2.61242 15.46171,-0.19194 26.05592,0.0812 27.72207,0.71463 3.84718,1.4627 4.3222,4.86209 1.82724,13.0762 L 859.94243,567 H 826.95216 793.9619 Z m 208.62623,63.94625 c 7.4346,-3.00394 15.0516,-9.92325 18.157,-16.49389 1.3523,-2.8613 4.1309,-10.75232 6.1746,-17.5356 5.1437,-17.07258 4.2745,-22.99958 -4.0332,-27.49992 -3.8342,-2.07702 -5.4804,-2.18757 -39.71612,-2.66684 -31.54814,-0.44165 -35.91,-0.6941 -37.37756,-2.16327 -2.18351,-2.18593 -1.1862,-7.81823 2.05096,-11.58279 l 2.36813,-2.75394 44.8373,-0.5 44.83729,-0.5 3.6972,-11 c 2.0335,-6.05 3.721,-11.58134 3.75,-12.29187 0.043,-1.04358 -9.9892,-1.23577 -52.1972,-1 L 943.5,522.5 l -5.94942,2.39646 c -7.10465,2.8618 -14.84111,9.76995 -18.06396,16.12995 -3.35786,6.62642 -9.48725,27.53645 -9.48288,32.3503 0.005,5.34669 2.78959,9.80161 7.6282,12.20333 3.5343,1.75429 6.97437,1.9631 39.86806,2.41996 19.8,0.275 36.5625,0.86406 37.25,1.30902 3.17174,2.05279 0.246,12.33637 -4.37093,15.3632 -2.56667,1.68269 -6.39635,1.86747 -48.24436,2.32778 l -45.45637,0.5 -3.33547,9.95065 c -1.8345,5.47286 -3.59827,10.77867 -3.91947,11.7907 -0.56296,1.77373 1.3741,1.82957 53.7463,1.54935 54.07418,-0.28933 54.35718,-0.30156 60.0319,-2.59445 z m 197.8669,1.19283 c 3.9105,-1.15982 6.729,-2.91001 10.065,-6.25 4.2034,-4.20836 5.0137,-5.84607 8.7274,-17.63908 2.2515,-7.15 6.9957,-21.6625 10.5425,-32.25 l 6.4487,-19.25 h -36.7134 -36.7134 l -3.1307,9.75 c -1.7218,5.3625 -3.4229,10.7625 -3.78,12 l -0.6494,2.25 h 21.0674 c 16.2045,0 21.0599,0.28853 21.035,1.25 -0.018,0.6875 -1.9411,6.875 -4.2739,13.75 l -4.2414,12.5 -27.9762,0.29582 c -15.3868,0.16271 -29.8865,0.0229 -32.2213,-0.31056 -2.3623,-0.33741 -5.5781,-1.72784 -7.25,-3.13471 -4.6708,-3.93015 -4.1394,-7.49673 5.3512,-35.91925 9.2998,-27.85125 9.5994,-28.5625 14.014,-33.26662 6.496,-6.92212 4.1679,-6.63355 56.1488,-6.95966 l 47.0187,-0.29498 4.125,-12.45502 4.125,-12.45502 h -51.6836 c -56.0488,0 -57.539,0.12237 -68.9769,5.66419 -7.3226,3.54785 -18.115,13.94458 -21.8669,21.06509 -1.6724,3.17389 -7.8151,20.24734 -13.6504,37.94099 -9.6316,29.20455 -10.6077,32.84599 -10.5877,39.5 0.038,12.67763 4.8427,19.42766 16.7067,23.47061 6.6543,2.26763 7.5153,2.30793 49.8398,2.3333 36.7392,0.022 43.8667,-0.21092 48.5,-1.5851 z m 161.5222,-8.05471 c 1.7673,-5.0411 3.5182,-10.5536 3.8908,-12.25 L 1367.1589,606 h -47.4732 -47.4733 l 2.4446,-7.75 c 3.3709,-10.68689 5.4741,-14.41848 9.4405,-16.75 3.1591,-1.8569 5.7994,-2.04172 36.9025,-2.58313 36.0433,-0.6274 39.2384,-1.05768 48.6262,-6.54845 5.8817,-3.44014 13.5671,-11.94826 16.5922,-18.36842 3.3285,-7.06412 9.7816,-28.34703 9.7816,-32.26069 0,-5.49209 -2.2526,-10.73484 -6.1096,-14.2194 C 1382.891,501.19642 1381.0426,501 1328.536,501 h -47.101 l -3.7175,11.29512 c -2.0446,6.21231 -3.7175,11.83731 -3.7175,12.5 0,0.92037 9.8586,1.20836 41.75,1.21962 32.0336,0.0113 42.3318,0.31399 44.25,1.30056 2.2429,1.15358 2.4885,1.86509 2.3884,6.91822 -0.1321,6.6675 -3.4765,14.1355 -7.7093,17.21451 -2.6739,1.94508 -4.5752,2.07974 -36.5,2.58499 -31.6601,0.50107 -34.0585,0.66816 -40.0078,2.78715 -8.002,2.8501 -13.2641,6.16959 -18.7851,11.85028 -6.8946,7.09401 -8.4442,11.01002 -23.9752,60.58715 -0.5218,1.66575 2.7028,1.74413 61.7078,1.5 L 1359.3773,630.5 Z M 1484.5,629.6288 c 11.4105,-3.07505 19.8921,-8.88971 25.3315,-17.36624 4.1688,-6.49646 11.1351,-27.46848 11.1538,-33.5783 0.015,-5.0374 -0.9956,-7.81853 -4.0756,-11.21179 -1.8094,-1.99347 -1.7618,-2.08588 2.8356,-5.5 6.6784,-4.95967 9.6897,-9.86 14.3558,-23.36179 3.5955,-10.40386 4.0606,-12.7425 3.723,-18.71803 -0.2759,-4.88282 -0.9732,-7.62146 -2.4469,-9.61068 -2.6716,-3.60608 -7.7076,-7.00152 -12.2596,-8.26594 -2.181,-0.60582 -21.8979,-1.00709 -49.6501,-1.01045 L 1427.435,501 l -3.7175,11.29512 c -2.0446,6.21231 -3.7175,11.83731 -3.7175,12.5 0,0.92025 9.6854,1.20488 41,1.20488 40.4165,0 41.0301,0.0301 43.1161,2.1161 2.5807,2.58074 2.2575,6.58165 -1.239,15.33436 C 1498.8266,553.59 1499.5632,553.41083 1459.5,554 l -34,0.5 -3.6832,10.5 c -2.0258,5.775 -3.7133,11.0625 -3.75,11.75 -0.052,0.97605 7.1512,1.25 32.8681,1.25 19.0866,0 34.0186,0.41203 35.5123,0.97992 4.4195,1.68031 5.0941,4.88347 2.6041,12.3658 -1.1981,3.60035 -3.1253,7.74996 -4.2827,9.22137 -4.1851,5.32039 -5.2341,5.43291 -50.6538,5.43291 h -41.9494 l -3.7297,11.25 c -2.0513,6.1875 -3.9366,11.8125 -4.1896,12.5 -0.6954,1.88945 93.2143,1.77592 100.2539,-0.1212 z M 122.5,476.13142 c 45.98987,-22.08493 116.22025,-42.43686 179.5,-52.01698 65.95657,-9.98538 130.44149,-10.55229 242.95123,-2.13587 64.15817,4.79942 71.16448,5.1209 124.55391,5.71496 43.02568,0.47874 98.66425,-0.32094 93.49486,-1.34379 -0.825,-0.16324 -17.25,-1.43944 -36.5,-2.836 -59.68534,-4.33009 -100.01796,-8.61274 -160,-16.98932 -47.85465,-6.68297 -57.62946,-7.91338 -83,-10.44767 -111.98182,-11.18596 -210.95905,2.09276 -299,40.11365 -26.90601,11.61948 -55.7733,28.97415 -72,43.28552 -3.64131,3.21151 -3.67753,3.22362 10,-3.3445 z m 1420.2809,-11.85009 c 2.7902,-7.02973 5.2185,-13.66754 5.3961,-14.75068 0.2681,-1.63449 -2.189,-3.21689 -14.4501,-9.30619 -9.6336,-4.78437 -16.7655,-7.66318 -20.5,-8.27486 -3.1498,-0.51591 -16.0769,-0.93959 -28.7269,-0.94151 -22.7902,-0.003 -69.759,1.06628 -69.2481,1.57716 0.5602,0.56018 36.1581,10.91947 55.2481,16.07766 39.0536,10.55242 42.2996,11.84925 56.8932,22.72935 4.8584,3.62212 9.1667,6.37974 9.574,6.12804 0.4072,-0.2517 3.0234,-6.20923 5.8137,-13.23897 z M 1041,426.47101 c 24.4288,-0.70657 49.705,-2.38417 120.5,-7.9977 109.1996,-8.65873 146.4062,-9.92416 208.5,-7.09128 19.525,0.89078 54.175,2.3069 77,3.14694 22.825,0.84004 47.575,2.21786 55,3.06182 16.8774,1.91836 44.831,6.18671 46.2465,7.06158 0.6012,0.37151 0.7714,0.18553 0.392,-0.42829 -1.6966,-2.74513 -34.6585,-13.96576 -52.1101,-17.73892 -37.7746,-8.16711 -102.686,-13.4968 -164.0284,-13.4679 -37.7986,0.0178 -62.8744,1.73054 -146,9.97215 -22,2.18122 -46.3,4.21435 -54,4.51806 -28.5627,1.12661 -54.9562,4.78874 -100,13.87516 -9.35,1.88612 -19.7,3.75791 -23,4.15953 -10.96501,1.33449 -10.3951,2.45446 1,1.96518 6.05,-0.25978 19.775,-0.72612 30.5,-1.03633 z m 132.5,-40.39048 c 34.62,-5.81602 60.8861,-9.27296 88.5,-11.64767 22.8215,-1.96259 65.9191,-1.4992 90,0.9677 18.5938,1.90478 39.7917,4.45792 43,5.17904 1.5916,0.35774 2.1366,0.21823 1.5,-0.38392 -2.0006,-1.89222 -68.4511,-23.17187 -123.5,-39.54879 -179.7367,-53.4712 -293.35968,-74.61823 -401.05011,-74.64175 -77.47181,-0.0169 -133.51145,12.84648 -209.44989,48.07734 -37.83101,17.55131 -123.49807,62.7556 -123.49954,65.16752 -2.5e-4,0.4125 8.14765,0.75 18.10644,0.75 h 18.10691 l 16.66218,-8.96231 C 626.50897,352.40917 681.62522,326.2477 709.5,315.20628 783.3218,285.96489 866.71786,279.27312 979,293.58137 c 50.626,6.45133 111.0158,19.04243 167.6863,34.96216 32.4793,9.12396 36.1353,11.03327 32.9439,17.20462 -2.5257,4.88427 -18.975,19.69832 -30.352,27.3347 -9.9033,6.64719 -39.1031,21.86331 -42.0282,21.90103 -0.6875,0.009 -1.25,0.38401 -1.25,0.83366 0,0.97675 26.3626,-2.82611 67.5,-9.73701 z M 728,386.9932 c 29.31142,-1.0624 81.50882,-2.74841 201,-6.49245 89.6946,-2.81042 122.5683,-4.06779 145,-5.54605 33.6318,-2.21636 41.061,-3.46702 51.5,-8.66968 6.6809,-3.32968 18.6814,-12.52296 21.9629,-16.8253 l 2.6453,-3.4681 -2.5788,-0.98043 C 1135.1901,340.3198 1086.3228,327.96867 1054.819,321.5788 951.20861,300.56367 858.5597,296.49314 795,310.16364 c -39.269,8.44603 -87.21654,28.59416 -136,57.14882 -13.65586,7.99325 -30.11977,18.90111 -29.48568,19.53519 2.12445,2.12445 42.25171,2.18375 98.48568,0.14555 z"
           id="path4" />
        <path
           style="fill:#ac1214"
           d="m 1102.7287,628.64088 c -11.864,-4.04295 -16.6688,-10.79298 -16.7067,-23.47061 -0.02,-6.65401 0.9561,-10.29545 10.5877,-39.5 5.8353,-17.69365 11.978,-34.7671 13.6504,-37.94099 3.7519,-7.12051 14.5443,-17.51724 21.8669,-21.06509 C 1143.5649,501.12237 1145.0551,501 1201.1039,501 h 51.6836 l -4.125,12.45502 -4.125,12.45502 -47.0187,0.29498 c -51.9809,0.32611 -49.6528,0.0375 -56.1488,6.95966 -4.4146,4.70412 -4.7142,5.41537 -14.014,33.26662 -9.4906,28.42252 -10.022,31.9891 -5.3512,35.91925 1.6719,1.40687 4.8877,2.7973 7.25,3.13471 2.3348,0.33351 16.8345,0.47327 32.2213,0.31056 l 27.9762,-0.29582 4.2414,-12.5 c 2.3328,-6.875 4.2561,-13.0625 4.2739,-13.75 0.025,-0.96147 -4.8305,-1.25 -21.035,-1.25 h -21.0674 l 0.6494,-2.25 c 0.3571,-1.2375 2.0582,-6.6375 3.78,-12 l 3.1307,-9.75 h 36.7134 36.7134 l -6.4487,19.25 c -3.5468,10.5875 -8.291,25.1 -10.5425,32.25 -3.7137,11.79301 -4.524,13.43072 -8.7274,17.63908 -7.7434,7.75268 -8.5835,7.86506 -58.565,7.8351 -42.3245,-0.0254 -43.1855,-0.0657 -49.8398,-2.3333 z m 210.6823,0.61672 c 15.531,-49.57713 17.0806,-53.49314 23.9752,-60.58715 5.521,-5.68069 10.7831,-9.00018 18.7851,-11.85028 5.9493,-2.11899 8.3477,-2.28608 40.0078,-2.78715 31.9248,-0.50525 33.8261,-0.63991 36.5,-2.58499 4.2328,-3.07901 7.5772,-10.54701 7.7093,-17.21451 0.1001,-5.05313 -0.1455,-5.76464 -2.3884,-6.91822 -1.9182,-0.98657 -12.2164,-1.28925 -44.25,-1.30056 -31.8914,-0.0113 -41.75,-0.29925 -41.75,-1.21962 0,-0.66269 1.6729,-6.28771 3.7175,-12.5 L 1359.435,501 h 47.101 c 52.5066,0 54.355,0.19642 61.3544,6.51991 3.857,3.48456 6.1096,8.72731 6.1096,14.2194 0,3.91366 -6.4531,25.19657 -9.7816,32.26069 -3.0251,6.42016 -10.7105,14.92828 -16.5922,18.36842 -9.3878,5.49077 -12.5829,5.92105 -48.6262,6.54845 -31.1031,0.54141 -33.7434,0.72623 -36.9025,2.58313 -3.9664,2.33152 -6.0695,6.06313 -9.4405,16.75 l -2.4446,7.75 h 47.4733 47.4732 l -0.6774,3.08437 c -0.3726,1.69642 -2.1234,7.20891 -3.8908,12.25 l -3.2134,9.16563 -62.2585,0.2576 c -59.005,0.24414 -62.2296,0.16575 -61.7078,-1.5 z m 148.8351,0.4924 c 0,-0.73257 2.1383,-6.31252 4.1896,-12.5 l 3.7297,-11.25 h 41.9494 c 45.4197,0 46.4687,-0.11252 50.6538,-5.43291 1.1574,-1.47141 3.0846,-5.62102 4.2827,-9.22137 2.49,-7.48233 1.8154,-10.68549 -2.6041,-12.3658 C 1562.9535,578.41203 1548.0215,578 1528.9349,578 c -25.7169,0 -32.9203,-0.27395 -32.8681,-1.25 0.037,-0.6875 1.7242,-5.97498 3.75,-11.75 l 3.6832,-10.5 34,-0.5 c 40.0632,-0.58916 39.3266,-0.41 43.3771,-10.54954 3.4965,-8.75271 3.8197,-12.75362 1.239,-15.33436 C 1580.0301,526.03012 1579.4165,526 1539,526 c -31.3146,0 -41,-0.28463 -41,-1.20488 0,-0.66269 1.6729,-6.28771 3.7175,-12.5 L 1505.435,501 l 46.0325,0.006 c 27.7522,0.003 47.4691,0.40463 49.6501,1.01045 4.552,1.26442 9.588,4.65986 12.2596,8.26594 1.4737,1.98922 2.171,4.72786 2.4469,9.61068 0.3376,5.97553 -0.1275,8.31417 -3.723,18.71803 -4.6661,13.50179 -7.6774,18.40212 -14.3558,23.36179 -4.5974,3.41412 -4.645,3.50653 -2.8356,5.5 3.08,3.39326 4.091,6.17439 4.0756,11.21179 -0.019,6.10982 -6.985,27.08184 -11.1538,33.5783 -5.4394,8.47653 -13.921,14.29119 -25.3315,17.36624 -7.0396,1.89712 -100.2539,2.13456 -100.2539,0.1212 z M 749.07895,609.41667 c 0.048,-1.16495 0.28494,-1.4019 0.60416,-0.60417 0.28887,0.72187 0.25335,1.58438 -0.0789,1.91667 -0.33229,0.33229 -0.56864,-0.25834 -0.52522,-1.3125 z m -418,-12 c 0.048,-1.16495 0.28494,-1.4019 0.60416,-0.60417 0.28887,0.72187 0.25335,1.58438 -0.0789,1.91667 -0.33229,0.33229 -0.56864,-0.25834 -0.52522,-1.3125 z M 964.2991,546.25472 c 4.83951,-0.18371 12.48951,-0.18277 17,0.002 4.5105,0.18485 0.5509,0.33516 -8.7991,0.33401 -9.35,-10e-4 -13.0404,-0.1524 -8.2009,-0.3361 z m 46.4509,0.0131 c 2.3375,-0.21053 6.1625,-0.21053 8.5,0 2.3375,0.21054 0.425,0.3828 -4.25,0.3828 -4.675,0 -6.5875,-0.17226 -4.25,-0.3828 z m 17,0 c 2.3375,-0.21053 6.1625,-0.21053 8.5,0 2.3375,0.21054 0.425,0.3828 -4.25,0.3828 -4.675,0 -6.5875,-0.17226 -4.25,-0.3828 z m -387.5,-58.00283 c 2.6125,-0.206 6.8875,-0.206 9.5,0 2.6125,0.206 0.475,0.37454 -4.75,0.37454 -5.225,0 -7.3625,-0.16854 -4.75,-0.37454 z m 887.1432,-16.8727 c -14.5936,-10.8801 -17.8396,-12.17693 -56.8932,-22.72935 -19.09,-5.15819 -54.6879,-15.51748 -55.2481,-16.07766 -0.5109,-0.51088 46.4579,-1.58062 69.2481,-1.57716 12.65,0.002 25.5771,0.4256 28.7269,0.94151 3.7345,0.61168 10.8664,3.49049 20.5,8.27486 12.2611,6.0893 14.7182,7.6717 14.4501,9.30619 -0.4622,2.81893 -10.3238,27.44207 -11.2098,27.98965 -0.4073,0.2517 -4.7156,-2.50592 -9.574,-6.12804 z M 638.26903,427.30701 c 0.97297,-0.25354 2.32297,-0.23687 3,0.0371 0.67703,0.27393 -0.11903,0.48137 -1.76903,0.46099 -1.65,-0.0204 -2.20394,-0.2445 -1.23097,-0.49804 z m 102.54347,0.01 c 0.72187,-0.28887 1.58438,-0.25335 1.91667,0.0789 0.33229,0.33229 -0.25834,0.56864 -1.3125,0.52522 -1.16495,-0.048 -1.4019,-0.28494 -0.60417,-0.60416 z m 267,0 c 0.7219,-0.28887 1.5844,-0.25335 1.9167,0.0789 0.3323,0.33229 -0.2584,0.56864 -1.3125,0.52522 -1.165,-0.048 -1.4019,-0.28494 -0.6042,-0.60416 z m 30.4375,-1.00622 c 0.9625,-0.25152 2.5375,-0.25152 3.5,0 0.9625,0.25153 0.175,0.45733 -1.75,0.45733 -1.925,0 -2.7125,-0.2058 -1.75,-0.45733 z m 26.5625,-0.99378 c 0.7219,-0.28887 1.5844,-0.25335 1.9167,0.0789 0.3323,0.33229 -0.2584,0.56864 -1.3125,0.52522 -1.165,-0.048 -1.4019,-0.28494 -0.6042,-0.60416 z m -553,-6 c 0.72187,-0.28887 1.58438,-0.25335 1.91667,0.0789 0.33229,0.33229 -0.25834,0.56864 -1.3125,0.52522 -1.16495,-0.048 -1.4019,-0.28494 -0.60417,-0.60416 z m -37.54347,-2.00988 c 0.97297,-0.25354 2.32297,-0.23687 3,0.0371 0.67703,0.27393 -0.11903,0.48137 -1.76903,0.46099 -1.65,-0.0204 -2.20394,-0.2445 -1.23097,-0.49804 z M 449.75,416.33772 c 0.6875,-0.27741 1.8125,-0.27741 2.5,0 0.6875,0.27741 0.125,0.50439 -1.25,0.50439 -1.375,0 -1.9375,-0.22698 -1.25,-0.50439 z m 1025,-1 c 0.6875,-0.27741 1.8125,-0.27741 2.5,0 0.6875,0.27741 0.125,0.50439 -1.25,0.50439 -1.375,0 -1.9375,-0.22698 -1.25,-0.50439 z m -55,-2 c 0.6875,-0.27741 1.8125,-0.27741 2.5,0 0.6875,0.27741 0.125,0.50439 -1.25,0.50439 -1.375,0 -1.9375,-0.22698 -1.25,-0.50439 z m -25,-1 c 0.6875,-0.27741 1.8125,-0.27741 2.5,0 0.6875,0.27741 0.125,0.50439 -1.25,0.50439 -1.375,0 -1.9375,-0.22698 -1.25,-0.50439 z m -22.9375,-1.02083 c 0.7219,-0.28887 1.5844,-0.25335 1.9167,0.0789 0.3323,0.33229 -0.2584,0.56864 -1.3125,0.52522 -1.165,-0.048 -1.4019,-0.28494 -0.6042,-0.60416 z m -94,-1 c 0.7219,-0.28887 1.5844,-0.25335 1.9167,0.0789 0.3323,0.33229 -0.2584,0.56864 -1.3125,0.52522 -1.165,-0.048 -1.4019,-0.28494 -0.6042,-0.60416 z m 72,0 c 0.7219,-0.28887 1.5844,-0.25335 1.9167,0.0789 0.3323,0.33229 -0.2584,0.56864 -1.3125,0.52522 -1.165,-0.048 -1.4019,-0.28494 -0.6042,-0.60416 z m -221,-3 c 0.7219,-0.28887 1.5844,-0.25335 1.9167,0.0789 0.3323,0.33229 -0.2584,0.56864 -1.3125,0.52522 -1.165,-0.048 -1.4019,-0.28494 -0.6042,-0.60416 z m 8,0 c 0.7219,-0.28887 1.5844,-0.25335 1.9167,0.0789 0.3323,0.33229 -0.2584,0.56864 -1.3125,0.52522 -1.165,-0.048 -1.4019,-0.28494 -0.6042,-0.60416 z m 145,-13 c 0.7219,-0.28887 1.5844,-0.25335 1.9167,0.0789 0.3323,0.33229 -0.2584,0.56864 -1.3125,0.52522 -1.165,-0.048 -1.4019,-0.28494 -0.6042,-0.60416 z m 103.9375,0.0208 c 0.6875,-0.27741 1.8125,-0.27741 2.5,0 0.6875,0.27741 0.125,0.50439 -1.25,0.50439 -1.375,0 -1.9375,-0.22698 -1.25,-0.50439 z m -83.9375,-1.02083 c 0.7219,-0.28887 1.5844,-0.25335 1.9167,0.0789 0.3323,0.33229 -0.2584,0.56864 -1.3125,0.52522 -1.165,-0.048 -1.4019,-0.28494 -0.6042,-0.60416 z m 57.9375,-0.0226 c 1.2375,-0.23836 3.2625,-0.23836 4.5,0 1.2375,0.23835 0.225,0.43337 -2.25,0.43337 -2.475,0 -3.4875,-0.19502 -2.25,-0.43337 z m -971.9375,-0.97738 c 0.72187,-0.28887 1.58438,-0.25335 1.91667,0.0789 0.33229,0.33229 -0.25834,0.56864 -1.3125,0.52522 -1.16495,-0.048 -1.4019,-0.28494 -0.60417,-0.60416 z m 42,0 c 0.72187,-0.28887 1.58438,-0.25335 1.91667,0.0789 0.33229,0.33229 -0.25834,0.56864 -1.3125,0.52522 -1.16495,-0.048 -1.4019,-0.28494 -0.60417,-0.60416 z m 217,-4 c 0.72187,-0.28887 1.58438,-0.25335 1.91667,0.0789 0.33229,0.33229 -0.25834,0.56864 -1.3125,0.52522 -1.16495,-0.048 -1.4019,-0.28494 -0.60417,-0.60416 z m 28.45653,-0.01 c 0.97297,-0.25354 2.32297,-0.23687 3,0.0371 0.67703,0.27393 -0.11903,0.48137 -1.76903,0.46099 -1.65,-0.0204 -2.20394,-0.2445 -1.23097,-0.49804 z m 34,-1 c 0.97297,-0.25354 2.32297,-0.23687 3,0.0371 0.67703,0.27393 -0.11903,0.48137 -1.76903,0.46099 -1.65,-0.0204 -2.20394,-0.2445 -1.23097,-0.49804 z M 737.75,386.33772 c 0.6875,-0.27741 1.8125,-0.27741 2.5,0 0.6875,0.27741 0.125,0.50439 -1.25,0.50439 -1.375,0 -1.9375,-0.22698 -1.25,-0.50439 z m 32,-1 c 0.6875,-0.27741 1.8125,-0.27741 2.5,0 0.6875,0.27741 0.125,0.50439 -1.25,0.50439 -1.375,0 -1.9375,-0.22698 -1.25,-0.50439 z m 157,-5 c 0.6875,-0.27741 1.8125,-0.27741 2.5,0 0.6875,0.27741 0.125,0.50439 -1.25,0.50439 -1.375,0 -1.9375,-0.22698 -1.25,-0.50439 z M 1395,379.94098 c 0,-0.58246 0.45,-0.7809 1,-0.44098 0.55,0.33992 1,0.81648 1,1.05902 0,0.24254 -0.45,0.44098 -1,0.44098 -0.55,0 -1,-0.47656 -1,-1.05902 z m -438.25,-0.60326 c 0.6875,-0.27741 1.8125,-0.27741 2.5,0 0.6875,0.27741 0.125,0.50439 -1.25,0.50439 -1.375,0 -1.9375,-0.22698 -1.25,-0.50439 z m 31.51903,-1.03071 c 0.97297,-0.25354 2.32297,-0.23687 3,0.0371 0.67703,0.27393 -0.11903,0.48137 -1.76903,0.46099 -1.65,-0.0204 -2.20394,-0.2445 -1.23097,-0.49804 z m 30.54347,-0.99012 c 0.7219,-0.28887 1.5844,-0.25335 1.9167,0.0789 0.3323,0.33229 -0.2584,0.56864 -1.3125,0.52522 -1.165,-0.048 -1.4019,-0.28494 -0.6042,-0.60416 z M 1170.5,356 c 0.9955,-1.1 2.035,-2 2.31,-2 0.275,0 -0.3145,0.9 -1.31,2 -0.9955,1.1 -2.035,2 -2.31,2 -0.275,0 0.3145,-0.9 1.31,-2 z M 860.8125,302.31689 c 0.72187,-0.28887 1.58438,-0.25335 1.91667,0.0789 0.33229,0.33229 -0.25834,0.56864 -1.3125,0.52522 -1.16495,-0.048 -1.4019,-0.28494 -0.60417,-0.60416 z m 38.9375,0.0208 c 0.6875,-0.27741 1.8125,-0.27741 2.5,0 0.6875,0.27741 0.125,0.50439 -1.25,0.50439 -1.375,0 -1.9375,-0.22698 -1.25,-0.50439 z m -43.9375,-16.02083 c 0.72187,-0.28887 1.58438,-0.25335 1.91667,0.0789 0.33229,0.33229 -0.25834,0.56864 -1.3125,0.52522 -1.16495,-0.048 -1.4019,-0.28494 -0.60417,-0.60416 z m 38,0 c 0.72187,-0.28887 1.58438,-0.25335 1.91667,0.0789 0.33229,0.33229 -0.25834,0.56864 -1.3125,0.52522 -1.16495,-0.048 -1.4019,-0.28494 -0.60417,-0.60416 z m -50,-20 c 0.72187,-0.28887 1.58438,-0.25335 1.91667,0.0789 0.33229,0.33229 -0.25834,0.56864 -1.3125,0.52522 -1.16495,-0.048 -1.4019,-0.28494 -0.60417,-0.60416 z m 55.9375,0.0208 c 0.6875,-0.27741 1.8125,-0.27741 2.5,0 0.6875,0.27741 0.125,0.50439 -1.25,0.50439 -1.375,0 -1.9375,-0.22698 -1.25,-0.50439 z"
           id="path3" />
        <path
           style="fill:#141f27"
           d="m 163.25067,629.45486 c -11.86351,-3.19457 -17.92108,-8.74404 -20.28056,-18.57948 -2.16766,-9.03578 -2.02436,-9.63093 15.01841,-62.37538 3.3766,-10.45 7.55572,-21.8804 9.28694,-25.4009 6.3012,-12.81371 18.2197,-22.82157 33.14613,-27.83248 l 8.07841,-2.71198 54.33722,-0.33981 c 52.093,-0.32577 54.31344,-0.26494 53.76154,1.47268 -0.31662,0.99687 -2.30804,6.98749 -4.42538,13.31249 l -3.8497,11.5 -47.41184,0.5 c -65.20109,0.6876 -59.64524,-2.51536 -74.76392,43.10172 C 181.11656,577.28267 177,590.874 177,592.30467 c 0,4.0265 2.09019,7.6813 5.44469,9.52033 2.71325,1.48747 8.33552,1.70712 50.21823,1.96189 l 47.16291,0.2869 -4.50044,13.4631 L 270.82495,631 219.66247,630.9342 c -40.78207,-0.0525 -52.22751,-0.3526 -56.4118,-1.47933 z m 150.69989,0.18316 c -6.37539,-1.71946 -11.46146,-5.11057 -14.12238,-9.41602 -1.81709,-2.94012 -2.26276,-5.0848 -2.22341,-10.6996 0.0418,-5.96574 1.22209,-10.63367 7.84397,-31.0224 4.28711,-13.2 9.36385,-27.12334 11.28164,-30.94076 6.34877,-12.63741 17.50815,-21.0182 32.10654,-24.11229 9.95594,-2.11013 73.38703,-2.04967 81.70298,0.0779 12.29077,3.14447 17.71297,9.58222 17.64737,20.95264 -0.0302,5.23714 -1.5633,10.98086 -8.72491,32.68804 -4.77855,14.48397 -9.98269,28.63097 -11.56476,31.43778 -5.716,10.14092 -16.57714,17.92984 -29.12844,20.88907 -8.26018,1.9475 -77.69561,2.06675 -84.8186,0.14566 z M 389.5,605.88996 c 2.45411,-0.6742 5.54589,-2.7111 8,-5.27048 3.56119,-3.71395 4.68565,-6.27195 10.25,-23.3175 3.4375,-10.53025 6.25,-20.34064 6.25,-21.80087 0,-1.60109 -1.16029,-3.81525 -2.92308,-5.57803 L 408.15385,547 l -25.32693,0.022 c -36.26103,0.0314 -35.18529,-0.68162 -45.32393,30.04361 -9.90685,30.0228 -10.09302,29.80464 25.49701,29.87732 13.40772,0.0274 24.11641,-0.39811 26.5,-1.05293 z m 78.58137,23.52654 c -11.63757,-3.13954 -16.38118,-9.02703 -16.36747,-20.31431 0.007,-5.60362 1.31237,-10.53463 8.63194,-32.60219 5.47701,-16.51249 9.99782,-28.33296 12.38904,-32.39334 6.43737,-10.93093 17.82691,-18.55816 31.61798,-21.17358 C 507.05892,522.41989 530.33787,522 556.08385,522 h 46.81087 l -4.19736,12.25 -4.19736,12.25 -42,0.5 -42,0.5 -4.51075,2.65194 c -5.8705,3.45137 -7.57973,6.72134 -14.37756,27.50615 -6.98215,21.34838 -7.13332,23.98656 -1.54017,26.8789 C 492.41974,605.7513 499.87883,606 533.95034,606 556.52765,606 575,606.35245 575,606.78321 c 0,0.43077 -1.72743,5.94327 -3.83873,12.25 l -3.83873,11.46679 -46.91127,0.18916 c -38.46277,0.15509 -47.88714,-0.0741 -52.3299,-1.27266 z M 588,629.95507 c 0,-0.57472 6.32867,-19.81222 14.06372,-42.75 7.73505,-22.93779 18.08989,-53.85507 23.01076,-68.70507 4.92087,-14.85 9.2797,-27.51266 9.68628,-28.13925 1.08301,-1.66902 31.24485,-2.69855 31.22342,-1.06576 -0.009,0.66276 -2.66967,9.30501 -5.91328,19.20501 -3.2436,9.9 -5.80053,18.09846 -5.68206,18.21879 0.11847,0.12033 2.89195,-0.88149 6.16328,-2.22626 5.82624,-2.39505 6.53156,-2.44554 34.48778,-2.46879 31.58983,-0.0263 37.57146,0.76837 43.9601,5.83999 5.10419,4.05196 7.00492,8.46352 6.95237,16.13627 -0.0383,5.59691 -1.88716,12.05747 -13.30692,46.5 l -13.2624,40 -15.69152,0.27539 C 695.06119,630.92686 688,630.73399 688,630.3468 c 0,-0.38719 5.20662,-16.42723 11.57027,-35.64454 6.36365,-19.2173 11.60399,-36.12659 11.64521,-37.57621 0.13229,-4.6528 -1.29885,-7.26294 -4.77972,-8.71734 C 703.80963,547.31145 696.9028,547 675.19529,547 h -27.86895 l -3.14999,9.25 c -1.7325,5.0875 -8.15933,23.9875 -14.28185,42 L 618.76265,631 H 603.38132 C 593.35283,631 588,630.63635 588,629.95507 Z m 177.6135,-0.0635 c -5.09775,-1.20288 -10.66753,-4.42327 -12.91724,-7.46864 -2.42619,-3.28426 -3.45186,-9.82696 -2.50566,-15.98359 1.09251,-7.10867 16.42218,-53.71966 20.00102,-60.8146 5.88989,-11.67649 17.39563,-19.96823 31.26625,-22.53235 7.84137,-1.44955 73.71202,-1.4638 80.45635,-0.0174 5.69341,1.22102 10.43801,4.12248 13.49383,8.25186 1.64143,2.21809 2.08532,4.26401 2.06115,9.5 -0.0257,5.56066 -1.17217,10.04896 -6.87726,26.92312 L 883.74549,588 h -48.3975 -48.39749 l -1.09897,2.75 c -0.60443,1.5125 -1.31479,4.77567 -1.57859,7.25148 -0.39803,3.73557 -0.10409,4.84153 1.72756,6.5 2.11486,1.91491 3.99467,2.01944 44.93254,2.49852 l 42.72533,0.5 -3.70022,11.5 -3.70022,11.5 -48.37896,0.15433 c -26.60844,0.0849 -50.1279,-0.25835 -52.26547,-0.76273 z m 96.2947,-69.08577 c 2.62173,-7.76337 2.6279,-10.26973 0.0317,-12.86594 -1.99208,-1.99208 -2.92477,-2.04986 -28.25,-1.75 -25.67847,0.30405 -26.26564,0.3572 -30.06912,2.72154 -3.81269,2.37006 -7.51204,8.56037 -9.16639,15.33857 l -0.6712,2.75 h 33.01661 33.0166 z m 30.79212,58.9442 c 1.93273,-6.1875 3.71738,-11.5875 3.96589,-12 0.2485,-0.4125 20.56277,-0.75663 45.14281,-0.76474 47.80745,-0.0158 47.65389,-4.9e-4 51.45454,-5.12102 2.49978,-3.3679 3.51147,-11.25267 1.6018,-12.48392 C 994.11441,588.89614 977.3,588.275 957.5,588 c -34.68146,-0.48169 -36.15062,-0.58058 -40.11239,-2.70012 -5.35692,-2.86594 -7.8434,-7.86472 -7.06615,-14.20566 0.71517,-5.83448 6.71995,-25.32417 9.43994,-30.63917 2.29141,-4.47754 9.33597,-11.4198 14.07466,-13.87027 8.06364,-4.16987 13.52814,-4.55458 64.91394,-4.57 27.0875,-0.008 49.25,0.29033 49.25,0.66323 0,0.37291 -1.5905,5.77291 -3.5344,12 L 1040.9312,546 l -8.7156,0.10042 c -4.7936,0.0552 -24.7556,0.16773 -44.36009,0.25 -34.117,0.14317 -35.74064,0.23529 -37.88802,2.14958 -4.5494,4.05558 -6.48153,12.54695 -3.21749,14.14028 0.9625,0.46984 17.725,1.08049 37.25,1.35699 35.1002,0.49707 35.5467,0.52949 39.647,2.87899 8.1721,4.68265 8.9539,11.13008 3.4438,28.39947 -6.1,19.11776 -9.6919,24.95633 -18.5457,30.14499 -8.94959,5.24479 -12.67145,5.54845 -68.20197,5.5645 L 889.18626,631 Z M 112.5,479.51644 c 37.10498,-32.2242 105.32951,-61.4149 177.5,-75.94557 40.72423,-8.19933 91.60974,-12.40107 135,-11.14728 38.04847,1.09944 70.23675,4.2978 137.5,13.66256 64.25994,8.94663 101.80548,12.96941 162.5,17.41093 18.975,1.38856 35.4,2.6563 36.5,2.8172 6.72794,0.98414 -53.48857,1.86901 -93.5,1.37396 -49.47372,-0.61212 -60.8368,-1.12991 -115.5,-5.26311 -99.9368,-7.55643 -159.83628,-8.35984 -214.5,-2.877 -75.88587,7.61145 -160.02863,29.63309 -214.97854,56.26369 -14.2482,6.90516 -14.17851,6.88062 -10.52146,3.70462 z m 888.5614,-51.8959 c 0.3088,-0.3172 7.0588,-1.70318 15,-3.07995 7.9412,-1.37677 20.0636,-3.65584 26.9386,-5.0646 33.4488,-6.85402 58.2168,-10.20842 84.9623,-11.50668 11.2542,-0.5463 38.2542,-2.77767 60,-4.9586 99.3386,-9.96289 126.7293,-11.29147 185.6103,-9.00303 66.3486,2.57868 110.7123,8.06633 142.4274,17.61784 9.6157,2.89593 32.222,11.48583 31.6728,12.03501 -0.1983,0.19829 -7.5478,-0.76367 -16.3323,-2.1377 -26.6098,-4.16219 -40.3843,-5.45545 -69.7489,-6.54856 -15.4504,-0.57515 -43.3916,-1.73728 -62.0916,-2.58252 -18.7,-0.84524 -51.325,-1.77932 -72.5,-2.07572 -45.7344,-0.64019 -67.7453,0.41684 -160.5,7.70774 -77.0951,6.05998 -102.567,7.70305 -131,8.4502 -12.1,0.31795 -24.925,0.83576 -28.5,1.15069 -3.575,0.31493 -6.2474,0.31308 -5.9386,-0.004 z M 1109,394.74783 c 30.0751,-13.43531 53.8866,-29.01745 66.1836,-43.31038 9.2791,-10.78511 8.0832,-12.2576 -15.6836,-19.31156 -48.5147,-14.3991 -119.3476,-30.11404 -164.78333,-36.55872 -105.41247,-14.95188 -188.15713,-11.94436 -255.73744,9.29528 -38.62528,12.13944 -90.35309,35.49641 -151.21351,68.27834 L 575.03145,380 h -18.01573 c -9.90864,0 -18.01551,-0.3375 -18.01526,-0.75 10e-4,-1.72909 58.55762,-33.17255 97.49954,-52.35491 84.13372,-41.44333 129.66223,-54.89984 203,-59.99913 20.37518,-1.41672 69.49265,-0.60745 96,1.58172 91.5079,7.55738 188.8339,28.27831 332,70.68352 58.2568,17.25542 128.1252,39.54698 127.1157,40.55639 -0.237,0.23707 -6.4212,-0.30099 -13.7425,-1.19568 -30.5102,-3.72846 -42.8433,-4.63069 -70.8732,-5.1847 -41.8892,-0.82795 -73.9587,2.1433 -136.8086,12.67532 -31.537,5.28477 -62.7059,10.02662 -65.1914,9.91779 -0.825,-0.0361 -0.375,-0.56825 1,-1.18249 z m -465.5,-6.42828 c -3.3,-0.16626 -7.97219,-0.56769 -10.38264,-0.89208 l -4.38265,-0.5898 4.88265,-3.51017 c 9.70548,-6.97736 40.31703,-24.60313 60.38264,-34.76762 62.43574,-31.62763 101.05891,-42.44932 163.12678,-45.70592 65.4883,-3.43607 160.23822,8.01517 245.22372,29.63712 21.1027,5.36892 45.7755,12.30742 46.5677,13.09578 2.064,2.05401 -12.7438,15.27759 -22.7794,20.34246 -9.057,4.57093 -15.3686,5.9658 -34.0461,7.52414 -34.2718,2.85944 -38.6335,3.02341 -307.5927,11.56321 -35.2,1.11764 -77.05,2.46685 -93,2.99824 -27.82782,0.9271 -34.77016,0.97116 -48,0.30464 z"
           id="path2" />
        <path
           d="m 1242.5703,631.84815 c 0,-0.54105 6.5372,-18.6515 14.527,-40.24544 7.99,-21.59395 18.6859,-50.69991 23.769,-64.6799 5.083,-13.98 9.5854,-25.9008 10.0054,-26.49068 1.1187,-1.57124 32.2742,-2.54045 32.2521,-1.00332 -0.01,0.62393 -30.9545,85.61453 -37.2787,102.57175 l -11.4986,30.8313 h -15.8881 c -10.3589,0 -15.8881,-0.34235 -15.8881,-0.98371 z"
           style="fill:#ac1214;fill-opacity:1;stroke-width:0.986119"
           id="path1" />
      </g>
    </g>
  </g>
</svg>
